inDegrees=yes
name=ik_S48_A06_T02
DataType=double
version=3
OpenSimVersion=4.3-2021-08-27-4bc7ad9
endheader
time	pelvis_tilt	pelvis_list	pelvis_rotation	pelvis_tx	pelvis_ty	pelvis_tz	hip_flexion_r	hip_adduction_r	hip_rotation_r	knee_angle_r	knee_angle_r_beta	ankle_angle_r	subtalar_angle_r	mtp_angle_r	hip_flexion_l	hip_adduction_l	hip_rotation_l	knee_angle_l	knee_angle_l_beta	ankle_angle_l	subtalar_angle_l	mtp_angle_l	lumbar_extension	lumbar_bending	lumbar_rotation	arm_flex_r	arm_add_r	arm_rot_r	elbow_flex_r	pro_sup_r	wrist_flex_r	wrist_dev_r	arm_flex_l	arm_add_l	arm_rot_l	elbow_flex_l	pro_sup_l	wrist_flex_l	wrist_dev_l
18.63999999999969	-8.277483900549987	-2.410994315921495	18.49419380760474	0	0.9399999999999999	0	45.42772174127001	-10.383207792047	-10.70377681580008	51.6017742921835	0.9006208612695685	0	0	0	45.42772174127001	-10.383207792047	-10.70377681580008	51.6017742921835	0.9006208612695685	0	0	0	-6.490694714936266	-0.753641264198307	6.954937424784608	42.44928387778522	-6.439657439404642	5.12449843893472	48.27252992021881	143.1279117676445	0	0	79.3864401191497	11.46212855061504	19.48467871134212	9.328373472239978	79.89147029678116	0	0
18.65999999999969	-8.256975004755756	-2.41721209846257	18.52899766144873	0	0.9399999999999999	0	45.42678427153339	-10.38073644117902	-10.70063609718382	51.60691247900265	0.9007105395471452	0	0	0	45.42678427153339	-10.38073644117902	-10.70063609718382	51.60691247900265	0.9007105395471452	0	0	0	-6.47605603013861	-0.7655390812944991	6.953409366838039	42.42390387351706	-6.453205169782052	5.131429301995369	48.30616196877433	143.038684036181	0	-7.633100058371716e-36	79.35994100004346	11.46491661354739	19.5114311832221	9.501650481677652	79.86975688652136	0	-7.633100058371716e-36
18.67999999999969	-8.251377829709559	-2.431216919102106	18.59438481069815	0	0.9399999999999999	0	45.42668194720234	-10.38042290387067	-10.70026380424764	51.60746698132989	0.9007202174384656	0	0	0	45.42668194720234	-10.38042290387067	-10.70026380424764	51.60746698132989	0.9007202174384656	0	0	0	-6.474456359536239	-0.7833250860861456	6.973845297576655	42.42906723376707	-6.489309828698354	5.071425050558599	48.25686289379894	143.052852538256	0	0	79.36757723146592	11.52693526215594	19.57536318782319	9.90270412754832	79.69478003824311	0	0
18.69999999999969	-8.19996433053778	-2.453077022751526	18.69044201071333	0	0.9399999999999999	0	45.4265485514366	-10.38001014668721	-10.69977528909947	51.60818315074951	0.9007327169528401	0	0	0	45.4265485514366	-10.38001014668721	-10.69977528909947	51.60818315074951	0.9007327169528401	0	0	0	-6.431338994367096	-0.8254151697283831	7.009082533107917	42.34353122334199	-6.517311025248093	4.954200218617318	48.23284364989369	143.0978057264287	0	0	79.28003624877793	11.5968390892994	19.71326844482846	10.35663912486048	79.55575607106177	0	0
18.71999999999969	-8.186281880603357	-2.460646740146571	18.76206257518861	0	0.9399999999999999	0	45.4264369153517	-10.37966575409959	-10.69936720943031	51.60878371831994	0.9007431988343247	0	0	0	45.4264369153517	-10.37966575409959	-10.69936720943031	51.60878371831994	0.9007431988343247	0	0	0	-6.419950225338347	-0.8403235117787825	7.034086411464399	42.31691771488322	-6.569846719852153	4.915178611262088	48.23496311108675	143.1231037638735	0	0	79.26804769580039	11.6552367091121	19.76989120488324	10.82476250674132	79.43937172318377	0	0
18.73999999999969	-8.149065234895188	-2.460943980508774	18.81477237726607	0	0.9399999999999999	0	45.42631853060023	-10.37930106928397	-10.69893481884582	51.60942104809413	0.9007543223373055	0	0	0	45.42631853060023	-10.37930106928397	-10.69893481884582	51.60942104809413	0.9007543223373055	0	0	0	-6.384342362023045	-0.854408037385033	7.047195428426484	42.25228275527942	-6.597894942551365	4.899158902490028	48.22694736660234	143.0705109430624	0	0	79.20470560725794	11.67663275882447	19.81942926338668	11.33419013797959	79.25632518521367	0	0
18.75999999999969	-8.107940803649985	-2.47368616033216	18.87519564897795	0	0.9399999999999999	0	45.42616271752976	-10.37881809452868	-10.69836333566236	51.61025471873493	0.9007688726348645	0	0	0	45.42616271752976	-10.37881809452868	-10.69836333566236	51.61025471873493	0.9007688726348645	0	0	0	-6.349283704439833	-0.8815592581247533	7.058463149761923	42.23199044369059	-6.60147845819387	4.908435160772464	48.17922291205685	143.0492523806163	0	0	79.14802466115431	11.69064527927153	19.9051879286123	11.88433459808169	79.0851998701375	0	0
18.77999999999969	-8.08565022853214	-2.475547767607742	18.9114686689356	0	0.9399999999999999	0	45.42603484538032	-10.37842382326903	-10.69789590128295	51.61094175290378	0.9007808636431848	0	0	0	45.42603484538032	-10.37842382326903	-10.69789590128295	51.61094175290378	0.9007808636431848	0	0	0	-6.329218110904325	-0.8899051374447734	7.052350961071149	42.22448299160882	-6.61909996765201	4.98106954808216	48.14747875394282	142.9609034154813	0	0	79.13385149434804	11.67236429193195	19.93447705025162	12.45864086421606	78.96705244507167	0	0
18.79999999999969	-8.060325262079257	-2.463069385139034	18.93793270883713	0	0.9399999999999999	0	45.42592824720143	-10.37809531963353	-10.69750631481541	51.61151437164621	0.9007908577255986	0	0	0	45.42592824720143	-10.37809531963353	-10.69750631481541	51.61151437164621	0.9007908577255986	0	0	0	-6.302006752864565	-0.8846154217835702	7.037816853759235	42.25920674864967	-6.651989695566478	5.132173443436591	48.06716667786844	142.9856803813874	0	0	79.10791779268074	11.65012876909028	19.92372694904973	13.0359569625681	78.84261081271477	0	0
18.81999999999969	-8.019418148149391	-2.464828958253174	18.93606274338858	0	0.9399999999999999	0	45.4258073114776	-10.37772355934121	-10.69706498844567	51.61216502194384	0.9008022137155713	0	0	0	45.4258073114776	-10.37772355934121	-10.69706498844567	51.61216502194384	0.9008022137155713	0	0	0	-6.264406474063157	-0.8986325915022131	7.028525008823859	42.2050403450762	-6.630386228137872	5.148602266251095	48.06004187756204	143.1108593027934	0	0	79.04481566413649	11.59929745801142	19.9712901755972	13.34700874932154	78.74487568643562	0	0
18.83999999999969	-8.007701521141104	-2.451085662178836	18.9100681338828	0	0.9399999999999999	0	45.42567585745606	-10.37732150345655	-10.69658686367437	51.61287547560595	0.9008146134711581	0	0	0	45.42567585745606	-10.37732150345655	-10.69658686367437	51.61287547560595	0.9008146134711581	0	0	0	-6.248353172359901	-0.8916994829183885	7.045566386767968	42.22552080012377	-6.646830071898128	5.144957807546208	48.03406272672525	143.115876709326	0	0	79.05087062065839	11.5455254204413	19.94470539551275	14.30089559080151	78.44307885855677	0	0
